<svg id="Layer_1" data-name="Layer 1" xmlns="http://www.w3.org/2000/svg" viewBox="0 0 894.52 523"><defs><style>.cls-1,.cls-9{fill:none;}.cls-1{stroke:#0020c9;}.cls-1,.cls-2,.cls-3{stroke-width:0.5px;}.cls-1,.cls-2{opacity:0.3;}.cls-2{fill:#190c0c;}.cls-2,.cls-3{stroke:#fff;}.cls-2,.cls-3,.cls-9{stroke-miterlimit:10;}.cls-3{fill:#f68926;opacity:0.7;}.cls-4{isolation:isolate;}.cls-13,.cls-4{font-size:12px;}.cls-11,.cls-13,.cls-4,.cls-6,.cls-7{font-family:ArialMT, Arial;}.cls-5{letter-spacing:-0.07em;}.cls-6{font-size:14px;}.cls-11,.cls-7{font-size:16px;}.cls-11,.cls-14,.cls-8{opacity:0.8;}.cls-9{stroke:#231f20;}.cls-10,.cls-11{fill:#231f20;}.cls-12{letter-spacing:-0.02em;}.cls-14{font-size:17px;font-family:ToppanBunkyuMidashiGothicStdN-ExtraBold-83pv-RKSJ-H, Toppan Bunkyu Midashi Gothic;}.cls-15{letter-spacing:-0.02em;}</style></defs><title>graphics</title><line class="cls-1" x1="101.85" x2="101.42" y2="501"/><line class="cls-1" x1="178.85" x2="178.42" y2="501"/><path class="cls-2" d="M42,405.8c38.47,0,38.47,34.95,76.94,34.95s38.58,44.43,77.16,44.43,38.47,3.92,76.94,3.92,38.47,16.48,76.94,16.48,38.47-18.81,76.94-18.81,38.58-6.58,77.16-6.58S542.55,510,581,510s38.47-25.15,76.94-25.15,38.47-28.38,76.94-28.38,38.58-37.06,77.16-37.06,38.47-74.77,76.94-74.77h0c-38.47,0-38.47,74.78-76.94,74.78s-38.58,37.06-77.16,37.06S696.43,484.85,658,484.85,619.49,510,581,510s-38.47-29.81-76.94-29.81-38.58,6.58-77.16,6.58S388.45,505.58,350,505.58,311.51,489.1,273,489.1s-38.47-3.92-76.94-3.92-38.58-44.43-77.16-44.43S80.47,405.8,42,405.8Z" transform="translate(-18.65 -15)"/><path class="cls-2" d="M42,405.8c38.47,0,38.47,34.95,76.94,34.95s38.58,44.43,77.16,44.43,38.47,3.92,76.94,3.92,38.47,16.48,76.94,16.48,38.47-18.81,76.94-18.81,38.58-6.67,77.16-6.67S542.55,510,581,510s38.47-25.15,76.94-25.15,38.47-28.38,76.94-28.38,38.58-37.06,77.16-37.06,38.47-74.74,76.94-74.74h0c-38.47,0-38.47,74.74-76.94,74.74s-38.58,37.06-77.16,37.06S696.43,484.85,658,484.85,619.49,510,581,510s-38.47-29.92-76.94-29.92-38.58,6.69-77.16,6.69S388.45,505.58,350,505.58,311.51,489.1,273,489.1s-38.47-3.92-76.94-3.92-38.58-44.43-77.16-44.43S80.47,405.8,42,405.8Z" transform="translate(-18.65 -15)"/><path class="cls-2" d="M42,405.8c38.47,0,38.47,34.95,76.94,34.95s38.58,44.43,77.16,44.43,38.47,3.92,76.94,3.92,38.47,16.48,76.94,16.48,38.47-18.81,76.94-18.81,38.58-6.58,77.16-6.58S542.55,510,581,510s38.47-25.15,76.94-25.15,38.47-28.38,76.94-28.38,38.58-37.06,77.16-37.06,38.47-74.74,76.94-74.74h0c-38.47,0-38.47,74.74-76.94,74.74s-38.58,37.06-77.16,37.06S696.43,484.85,658,484.85,619.49,510,581,510s-38.47-29.81-76.94-29.81-38.58,6.58-77.16,6.58S388.45,505.58,350,505.58,311.51,489.1,273,489.1s-38.47-3.92-76.94-3.92-38.58-44.43-77.16-44.43S80.47,405.8,42,405.8Z" transform="translate(-18.65 -15)"/><path class="cls-2" d="M42,405.67c38.47,0,38.47,35,76.94,35S157.52,485,196.1,485s38.47,3.87,76.94,3.87,38.47,16.67,76.94,16.67,38.47-18.78,76.94-18.78,38.58-6.56,77.16-6.56S542.55,510,581,510s38.47-25.19,76.94-25.19,38.47-28.4,76.94-28.4,38.58-37.21,77.16-37.21,38.47-74.79,76.94-74.79v-.05c-38.47,0-38.47,74.79-76.94,74.79s-38.58,37.24-77.16,37.24S696.43,484.8,658,484.8,619.49,510,581,510s-38.47-29.81-76.94-29.81-38.58,6.55-77.16,6.55S388.45,505.52,350,505.52,311.51,488.8,273,488.8s-38.47-3.89-76.94-3.89-38.58-44.31-77.16-44.31-38.47-35-76.94-35Z" transform="translate(-18.65 -15)"/><path class="cls-2" d="M42,405.8c38.47,0,38.47,34.95,76.94,34.95s38.58,44.43,77.16,44.43,38.47,3.92,76.94,3.92,38.47,16.48,76.94,16.48,38.47-18.81,76.94-18.81,38.58-6.58,77.16-6.58S542.55,510,581,510s38.47-25.15,76.94-25.15,38.47-28.38,76.94-28.38,38.58-37.06,77.16-37.06,38.47-74.74,76.94-74.74h0c-38.47,0-38.47,74.74-76.94,74.74s-38.58,37.06-77.16,37.06S696.43,484.85,658,484.85,619.49,510,581,510s-38.47-29.81-76.94-29.81-38.58,6.58-77.16,6.58S388.45,505.58,350,505.58,311.51,489.1,273,489.1s-38.47-3.92-76.94-3.92-38.58-44.43-77.16-44.43S80.47,405.8,42,405.8Z" transform="translate(-18.65 -15)"/><path class="cls-2" d="M42,405.8c38.47,0,38.47,34.95,76.94,34.95s38.58,44.43,77.16,44.43,38.47,3.92,76.94,3.92,38.47,16.48,76.94,16.48,38.47-18.81,76.94-18.81,38.58-6.58,77.16-6.58S542.55,510,581,510s38.47-25.15,76.94-25.15,38.47-28.38,76.94-28.38,38.58-37.06,77.16-37.06,38.47-74.74,76.94-74.74h0c-38.47,0-38.47,74.74-76.94,74.74s-38.58,37.06-77.16,37.06S696.43,484.85,658,484.85,619.49,510,581,510s-38.47-29.81-76.94-29.81-38.58,6.58-77.16,6.58S388.45,505.58,350,505.58,311.51,489.1,273,489.1s-38.47-3.92-76.94-3.92-38.58-44.43-77.16-44.43S80.47,405.8,42,405.8Z" transform="translate(-18.65 -15)"/><path class="cls-2" d="M42,405.8c38.47,0,38.47,34.65,76.94,34.65s38.58,44.73,77.16,44.73,38.47,3.92,76.94,3.92,38.47,16.48,76.94,16.48,38.47-18.81,76.94-18.81,38.58-6.58,77.16-6.58S542.55,510,581,510s38.47-25.15,76.94-25.15,38.47-28.38,76.94-28.38,38.58-37.06,77.16-37.06,38.47-74.74,76.94-74.74h0c-38.47,0-38.47,74.74-76.94,74.74s-38.58,37.06-77.16,37.06S696.43,484.85,658,484.85,619.49,510,581,510s-38.47-29.81-76.94-29.81-38.58,6.58-77.16,6.58S388.45,505.58,350,505.58,311.51,489.1,273,489.1s-38.47-3.92-76.94-3.92-38.58-44.89-77.16-44.89S80.47,405.8,42,405.8Z" transform="translate(-18.65 -15)"/><path class="cls-2" d="M42,405.8c38.47,0,38.47,34.95,76.94,34.95s38.58,44.43,77.16,44.43,38.47,3.88,76.94,3.88,38.47,16.52,76.94,16.52,38.47-19.12,76.94-19.12,38.58-6.55,77.16-6.55,38.47,30,76.94,30S619.49,484.8,658,484.8s38.47-28.41,76.94-28.41,38.58-37.52,77.16-37.52,38.47-76.61,76.94-76.61v-.43c-38.47,0-38.47,76.95-76.94,76.95s-38.58,37.58-77.16,37.58S696.43,484.78,658,484.78,619.49,509.84,581,509.84s-38.47-30-76.94-30-38.58,6.53-77.16,6.53-38.47,19.2-76.94,19.2S311.51,489.06,273,489.06s-38.47-3.88-76.94-3.88-38.58-44.43-77.16-44.43S80.47,405.8,42,405.8Z" transform="translate(-18.65 -15)"/><path class="cls-2" d="M42,405.72c38.47,0,38.47,35,76.94,35s38.58,44.43,77.16,44.43,38.47,3.92,76.94,3.92,38.47,16.48,76.94,16.48,38.47-18.89,76.94-18.89,38.58-6.5,77.16-6.5S542.55,510,581,510s38.47-25.13,76.94-25.13,38.47-28.66,76.94-28.66,38.58-37.51,77.16-37.51S850.53,344,889,344v-.09c-38.47,0-38.47,74.65-76.94,74.65S773.48,456.1,734.9,456.1,696.43,484.85,658,484.85,619.49,510,581,510s-38.47-29.8-76.94-29.8-38.58,6.5-77.16,6.5-38.47,18.9-76.94,18.9S311.51,489.1,273,489.1s-38.47-3.92-76.94-3.92-38.58-44.43-77.16-44.43S80.47,405.67,42,405.67Z" transform="translate(-18.65 -15)"/><path class="cls-2" d="M42,405.8c38.47,0,38.47,34.95,76.94,34.95s38.58,44.43,77.16,44.43,38.47,3.92,76.94,3.92,38.47,16.48,76.94,16.48,38.47-18.81,76.94-18.81,38.58-6.58,77.16-6.58S542.55,510,581,510s38.47-25.15,76.94-25.15,38.47-28.38,76.94-28.38,38.58-37.06,77.16-37.06,38.47-74.74,76.94-74.74h0c-38.47,0-38.47,74.74-76.94,74.74s-38.58,37.06-77.16,37.06S696.43,484.85,658,484.85,619.49,510,581,510s-38.47-29.81-76.94-29.81-38.58,6.58-77.16,6.58S388.45,505.58,350,505.58,311.51,489.1,273,489.1s-38.47-3.92-76.94-3.92-38.58-44.43-77.16-44.43S80.47,405.8,42,405.8Z" transform="translate(-18.65 -15)"/><path class="cls-2" d="M42,405.8c38.47,0,38.47,34.95,76.94,34.95s38.58,44.43,77.16,44.43,38.47,3.92,76.94,3.92,38.47,16.48,76.94,16.48,38.47-18.81,76.94-18.81,38.58-6.58,77.16-6.58S542.55,510,581,510s38.47-25.15,76.94-25.15,38.47-28.38,76.94-28.38,38.58-37.06,77.16-37.06,38.47-74.74,76.94-74.74h0c-38.47,0-38.47,74.74-76.94,74.74s-38.58,37.06-77.16,37.06S696.43,484.85,658,484.85,619.49,510,581,510s-38.47-29.81-76.94-29.81-38.58,6.58-77.16,6.58S388.45,505.58,350,505.58,311.51,489.1,273,489.1s-38.47-3.92-76.94-3.92-38.58-44.43-77.16-44.43S80.47,405.8,42,405.8Z" transform="translate(-18.65 -15)"/><path class="cls-2" d="M42,405.8c38.47,0,38.47,34.95,76.94,34.95s38.58,44.43,77.16,44.43,38.47,3.92,76.94,3.92,38.47,16.48,76.94,16.48,38.47-18.81,76.94-18.81,38.58-6.58,77.16-6.58S542.55,510,581,510s38.47-25.15,76.94-25.15,38.47-28.38,76.94-28.38,38.58-37.06,77.16-37.06,38.47-74.74,76.94-74.74h0c-38.47,0-38.47,74.74-76.94,74.74s-38.58,37.06-77.16,37.06S696.43,484.85,658,484.85,619.49,510,581,510s-38.47-29.81-76.94-29.81-38.58,6.58-77.16,6.58S388.45,505.58,350,505.58,311.51,489.1,273,489.1s-38.47-3.92-76.94-3.92-38.58-44.43-77.16-44.43S80.47,405.8,42,405.8Z" transform="translate(-18.65 -15)"/><path class="cls-2" d="M42,405.8c38.47,0,38.47,34.95,76.94,34.95s38.58,44.43,77.16,44.43,38.47,3.92,76.94,3.92,38.47,16.48,76.94,16.48,38.47-18.84,76.94-18.84,38.58-6.55,77.16-6.55S542.55,510,581,510s38.47-25.15,76.94-25.15,38.47-28.38,76.94-28.38,38.58-37.06,77.16-37.06,38.47-74.74,76.94-74.74h0c-38.47,0-38.47,74.75-76.94,74.75s-38.58,37.06-77.16,37.06S696.43,484.85,658,484.85,619.49,510,581,510s-38.47-29.81-76.94-29.81-38.58,6.55-77.16,6.55S388.45,505.58,350,505.58,311.51,489.1,273,489.1s-38.47-3.92-76.94-3.92-38.58-44.43-77.16-44.43S80.47,405.8,42,405.8Z" transform="translate(-18.65 -15)"/><path class="cls-2" d="M42,405.8c38.47,0,38.47,34.87,76.94,34.87s38.58,44.51,77.16,44.51,38.47,3.92,76.94,3.92,38.47,16.48,76.94,16.48,38.47-18.81,76.94-18.81,38.58-6.58,77.16-6.58S542.55,510,581,510s38.47-25.15,76.94-25.15,38.47-28.38,76.94-28.38,38.58-37.06,77.16-37.06,38.47-74.74,76.94-74.74h0c-38.47,0-38.47,74.74-76.94,74.74s-38.58,37.06-77.16,37.06S696.43,484.85,658,484.85,619.49,510,581,510s-38.47-29.81-76.94-29.81-38.58,6.58-77.16,6.58S388.45,505.58,350,505.58,311.51,489.1,273,489.1s-38.47-3.92-76.94-3.92-38.58-44.54-77.16-44.54S80.47,405.8,42,405.8Z" transform="translate(-18.65 -15)"/><path class="cls-2" d="M42,405.8c38.47,0,38.47,34.95,76.94,34.95s38.58,44.43,77.16,44.43,38.47,3.92,76.94,3.92,38.47,16.48,76.94,16.48,38.47-18.81,76.94-18.81,38.58-6.58,77.16-6.58S542.55,510,581,510s38.47-25.15,76.94-25.15,38.47-28.38,76.94-28.38,38.58-37.32,77.16-37.32,38.47-74.49,76.94-74.49h0c-38.47,0-38.47,74.43-76.94,74.43s-38.58,37.39-77.16,37.39S696.43,484.85,658,484.85,619.49,510,581,510s-38.47-29.81-76.94-29.81-38.58,6.58-77.16,6.58S388.45,505.58,350,505.58,311.51,489.1,273,489.1s-38.47-3.92-76.94-3.92-38.58-44.43-77.16-44.43S80.47,405.8,42,405.8Z" transform="translate(-18.65 -15)"/><path class="cls-2" d="M42,405.8c38.47,0,38.47,34.95,76.94,34.95s38.58,44.43,77.16,44.43,38.47,3.89,76.94,3.89,38.47,16.51,76.94,16.51,38.47-18.81,76.94-18.81,38.58-6.58,77.16-6.58S542.55,510,581,510s38.47-25.11,76.94-25.11,38.47-28.38,76.94-28.38,38.58-37.06,77.16-37.06,38.47-75.27,76.94-75.27v-.08c-38.47,0-38.47,75.35-76.94,75.35s-38.58,37.06-77.16,37.06S696.43,484.85,658,484.85,619.49,510,581,510s-38.47-29.77-76.94-29.77-38.58,6.58-77.16,6.58S388.45,505.58,350,505.58,311.51,489.06,273,489.06s-38.47-3.88-76.94-3.88-38.58-44.43-77.16-44.43S80.47,405.8,42,405.8Z" transform="translate(-18.65 -15)"/><path class="cls-2" d="M42,405.8c38.47,0,38.47,34.95,76.94,34.95s38.58,44.43,77.16,44.43,38.47,3.92,76.94,3.92,38.47,16.48,76.94,16.48,38.47-18.92,76.94-18.92,38.58-6.47,77.16-6.47S542.55,510,581,510s38.47-25.12,76.94-25.12,38.47-28.38,76.94-28.38,38.58-37.06,77.16-37.06,38.47-74.74,76.94-74.74h0c-38.47,0-38.47,74.74-76.94,74.74s-38.58,37.06-77.16,37.06S696.43,484.85,658,484.85,619.49,510,581,510s-38.47-29.77-76.94-29.77-38.58,6.45-77.16,6.45S388.45,505.58,350,505.58,311.51,489.1,273,489.1s-38.47-3.92-76.94-3.92-38.58-44.43-77.16-44.43S80.47,405.8,42,405.8Z" transform="translate(-18.65 -15)"/><path class="cls-2" d="M42,405.8c38.47,0,38.47,34.95,76.94,34.95s38.58,44.43,77.16,44.43,38.47,3.92,76.94,3.92,38.47,16.48,76.94,16.48,38.47-18.81,76.94-18.81,38.58-6.58,77.16-6.58S542.55,510,581,510s38.47-25.15,76.94-25.15,38.47-28.38,76.94-28.38,38.58-37.06,77.16-37.06,38.47-74.74,76.94-74.74h0c-38.47,0-38.47,74.74-76.94,74.74s-38.58,37.06-77.16,37.06S696.43,484.85,658,484.85,619.49,510,581,510s-38.47-29.81-76.94-29.81-38.58,6.58-77.16,6.58S388.45,505.58,350,505.58,311.51,489.1,273,489.1s-38.47-3.92-76.94-3.92-38.58-44.43-77.16-44.43S80.47,405.8,42,405.8Z" transform="translate(-18.65 -15)"/><path class="cls-2" d="M42,405.8c38.47,0,38.47,34.95,76.94,34.95s38.58,44.43,77.16,44.43,38.47,3.72,76.94,3.72,38.47,16.61,76.94,16.61,38.47-18.74,76.94-18.74S465.5,480,504.08,480s38.47,29.9,76.94,29.9,38.47-25.28,76.94-25.28,38.47-28.18,76.94-28.18,38.58-37.39,77.16-37.39,38.47-74.41,76.94-74.41h0c-38.47,0-38.47,74.35-76.94,74.35s-38.58,37.45-77.16,37.45S696.43,484.58,658,484.58,619.49,509.91,581,509.91,542.55,480,504.08,480s-38.58,6.8-77.16,6.8S388.45,505.49,350,505.49,311.51,488.86,273,488.86s-38.47-3.68-76.94-3.68-38.58-44.43-77.16-44.43S80.47,405.8,42,405.8Z" transform="translate(-18.65 -15)"/><path data-chart="China 2007:328k 2018:29k" id="china" class="cls-2" d="M42,395c38.47,0,38.47,30.94,76.94,30.94S157.52,268,196.1,268s38.47,9.92,76.94,9.92,38.47,54.91,76.94,54.91,38.47,16.05,76.94,16.05,38.58-26.82,77.16-26.82S542.55,314,581,314s38.47-38.87,76.94-38.87S696.43,257,734.9,257s38.58-6.25,77.16-6.25,38.47,70,76.94,70V310c-38.47,0-38.47-189.38-76.94-189.38S773.48,83.53,734.9,83.53,696.43,55.15,658,55.15,619.49,30,581,30s-38.47,29.81-76.94,29.81-38.58-6.58-77.16-6.58S388.45,34.42,350,34.42,311.51,50.9,273,50.9s-38.47,3.92-76.94,3.92-38.58,220.49-77.16,220.49S80.47,271.2,42,271.2Z" transform="translate(-18.65 -15)"/><path class="cls-2" d="M42,405.8c38.47,0,38.47,34.95,76.94,34.95s38.58,44.43,77.16,44.43,38.47,3.92,76.94,3.92,38.47,16.44,76.94,16.44,38.47-18.77,76.94-18.77,38.58-6.58,77.16-6.58S542.55,510,581,510s38.47-25.15,76.94-25.15,38.47-28.38,76.94-28.38,38.58-37.06,77.16-37.06,38.47-74.74,76.94-74.74h0c-38.47,0-38.47,74.74-76.94,74.74s-38.58,37.06-77.16,37.06S696.43,484.85,658,484.85,619.49,510,581,510s-38.47-29.81-76.94-29.81-38.58,6.58-77.16,6.58S388.45,505.53,350,505.53,311.51,489.1,273,489.1s-38.47-3.92-76.94-3.92-38.58-44.43-77.16-44.43S80.47,405.8,42,405.8Z" transform="translate(-18.65 -15)"/><path class="cls-2" d="M42,405.79c38.47,0,38.47,35,76.94,35s38.58,44.43,77.16,44.43,38.47,3.92,76.94,3.92,38.47,16.48,76.94,16.48,38.47-18.94,76.94-18.94,38.58-6.49,77.16-6.49,38.47,29.56,76.94,29.56,38.47-24.86,76.94-24.86,38.47-28.43,76.94-28.43,38.58-37.13,77.16-37.13,38.47-74.7,76.94-74.7h0c-38.47,0-38.47,74.67-76.94,74.67s-38.58,37.16-77.16,37.16S696.43,484.85,658,484.85,619.49,509.66,581,509.66s-38.47-29.51-76.94-29.51-38.58,6.47-77.16,6.47-38.47,19-76.94,19S311.51,489.1,273,489.1s-38.47-3.92-76.94-3.92-38.58-44.43-77.16-44.43-38.47-35-76.94-35Z" transform="translate(-18.65 -15)"/><path class="cls-2" d="M42,405.8c38.47,0,38.47,34.95,76.94,34.95s38.58,44.43,77.16,44.43,38.47,3.92,76.94,3.92,38.47,16.48,76.94,16.48,38.47-18.81,76.94-18.81,38.58-6.58,77.16-6.58S542.55,510,581,510s38.47-25.15,76.94-25.15,38.47-28.38,76.94-28.38,38.58-37.06,77.16-37.06,38.47-74.74,76.94-74.74h0c-38.47,0-38.47,74.74-76.94,74.74s-38.58,37.06-77.16,37.06S696.43,484.85,658,484.85,619.49,510,581,510s-38.47-29.81-76.94-29.81-38.58,6.58-77.16,6.58S388.45,505.58,350,505.58,311.51,489.1,273,489.1s-38.47-3.92-76.94-3.92-38.58-44.43-77.16-44.43S80.47,405.8,42,405.8Z" transform="translate(-18.65 -15)"/><path class="cls-2" d="M42,405.8c38.47,0,38.47,34.95,76.94,34.95s38.58,44.43,77.16,44.43,38.47,3.92,76.94,3.92,38.47,16.48,76.94,16.48,38.47-18.81,76.94-18.81,38.58-6.58,77.16-6.58S542.55,510,581,510s38.47-25.15,76.94-25.15,38.47-28.39,76.94-28.39,38.58-37.14,77.16-37.14,38.47-75.09,76.94-75.09v-.09c-38.47,0-38.47,75.15-76.94,75.15s-38.58,37.17-77.16,37.17S696.43,484.85,658,484.85,619.49,510,581,510s-38.47-29.81-76.94-29.81-38.58,6.58-77.16,6.58S388.45,505.58,350,505.58,311.51,489.09,273,489.09s-38.47-3.91-76.94-3.91-38.58-44.43-77.16-44.43S80.47,405.8,42,405.8Z" transform="translate(-18.65 -15)"/><path class="cls-2" d="M42,405.8c38.47,0,38.47,34.95,76.94,34.95s38.58,44.43,77.16,44.43,38.47,3.92,76.94,3.92,38.47,16.48,76.94,16.48,38.47-18.81,76.94-18.81,38.58-6.58,77.16-6.58S542.55,510,581,510s38.47-25.15,76.94-25.15,38.47-28.38,76.94-28.38,38.58-37.06,77.16-37.06,38.47-75,76.94-75v0c-38.47,0-38.47,75-76.94,75s-38.58,37.06-77.16,37.06S696.43,484.85,658,484.85,619.49,510,581,510s-38.47-29.81-76.94-29.81-38.58,6.58-77.16,6.58S388.45,505.58,350,505.58,311.51,489.1,273,489.1s-38.47-3.92-76.94-3.92-38.58-44.43-77.16-44.43S80.47,405.8,42,405.8Z" transform="translate(-18.65 -15)"/><path class="cls-2" d="M42,405.8c38.47,0,38.47,34.95,76.94,34.95s38.58,44.43,77.16,44.43,38.47,3.92,76.94,3.92,38.47,16.48,76.94,16.48,38.47-18.81,76.94-18.81,38.58-6.58,77.16-6.58S542.55,510,581,510s38.47-25.15,76.94-25.15,38.47-28.38,76.94-28.38,38.58-37.06,77.16-37.06,38.47-74.74,76.94-74.74h0c-38.47,0-38.47,74.74-76.94,74.74s-38.58,37.06-77.16,37.06S696.43,484.85,658,484.85,619.49,510,581,510s-38.47-29.81-76.94-29.81-38.58,6.58-77.16,6.58S388.45,505.58,350,505.58,311.51,489.1,273,489.1s-38.47-3.92-76.94-3.92-38.58-44.43-77.16-44.43S80.47,405.8,42,405.8Z" transform="translate(-18.65 -15)"/><path class="cls-2" d="M42,405.8c38.47,0,38.47,34.95,76.94,34.95s38.58,44.43,77.16,44.43,38.47,3.92,76.94,3.92,38.47,16.48,76.94,16.48,38.47-18.81,76.94-18.81,38.58-6.92,77.16-6.92,38.47,30,76.94,30,38.47-25,76.94-25,38.47-28.38,76.94-28.38,38.58-37.06,77.16-37.06,38.47-74.74,76.94-74.74h0c-38.47,0-38.47,74.74-76.94,74.74s-38.58,37.06-77.16,37.06S696.43,484.85,658,484.85s-38.47,25-76.94,25-38.47-30.1-76.94-30.1-38.58,7-77.16,7S388.45,505.58,350,505.58,311.51,489.1,273,489.1s-38.47-3.92-76.94-3.92-38.58-44.43-77.16-44.43S80.47,405.8,42,405.8Z" transform="translate(-18.65 -15)"/><path class="cls-2" d="M42,405.8c38.47,0,38.47,34.95,76.94,34.95s38.58,44.43,77.16,44.43,38.47,3.92,76.94,3.92,38.47,16.48,76.94,16.48,38.47-19.34,76.94-19.34,38.58-6.06,77.16-6.06S542.55,510,581,510s38.47-25.15,76.94-25.15,38.47-28.41,76.94-28.41,38.58-37,77.16-37,38.47-74.73,76.94-74.73h0c-38.47,0-38.47,74.72-76.94,74.72s-38.58,37-77.16,37S696.43,484.85,658,484.85,619.49,510,581,510s-38.47-29.83-76.94-29.83-38.58,5.9-77.16,5.9S388.45,505.58,350,505.58,311.51,489.1,273,489.1s-38.47-3.92-76.94-3.92-38.58-44.43-77.16-44.43S80.47,405.8,42,405.8Z" transform="translate(-18.65 -15)"/><path class="cls-2" d="M42,405.8c38.47,0,38.47,34.95,76.94,34.95s38.58,44.43,77.16,44.43,38.47,3.92,76.94,3.92,38.47,16.42,76.94,16.42,38.47-19.14,76.94-19.14,38.58-7,77.16-7,38.47,30.3,76.94,30.3,38.47-24.82,76.94-24.82,38.47-28.37,76.94-28.37,38.58-37.06,77.16-37.06,38.47-75.52,76.94-75.52v-.09c-38.47,0-38.47,75.61-76.94,75.61s-38.58,37.06-77.16,37.06S696.43,484.83,658,484.83,619.49,509.58,581,509.58,542.55,479,504.08,479s-38.58,7.21-77.16,7.21S388.45,505.51,350,505.51,311.51,489.1,273,489.1s-38.47-3.92-76.94-3.92-38.58-44.43-77.16-44.43S80.47,405.8,42,405.8Z" transform="translate(-18.65 -15)"/><path class="cls-2" d="M42,405.8c38.47,0,38.47,34.94,76.94,34.94s38.58,44.44,77.16,44.44S234.57,489,273,489,311.51,505.1,350,505.1s38.47-18.33,76.94-18.33,38.58-6.58,77.16-6.58S542.55,510,581,510s38.47-25.15,76.94-25.15,38.47-28.38,76.94-28.38,38.58-37.06,77.16-37.06,38.47-74.74,76.94-74.74h0c-38.47,0-38.47,74.74-76.94,74.74s-38.58,37.06-77.16,37.06S696.43,484.85,658,484.85,619.49,510,581,510s-38.47-29.81-76.94-29.81-38.58,6.58-77.16,6.58S388.45,504.88,350,504.88,311.51,489,273,489s-38.47-3.82-76.94-3.82-38.58-44.44-77.16-44.44S80.47,405.8,42,405.8Z" transform="translate(-18.65 -15)"/><path data-chart="El Salvador 2007:0k 2018:5k" id="el_salvador" data-name="el salvador" class="cls-2" d="M42,405.8c38.47,0,38.47,34.92,76.94,34.92s38.58,44.46,77.16,44.46,38.47,3.92,76.94,3.92,38.47,16.14,76.94,16.14,38.47-18.73,76.94-18.73,38.58-6.82,77.16-6.82,38.47,28.65,76.94,28.65,38.47-25.46,76.94-25.46S696.43,454,734.9,454s38.58-38.24,77.16-38.24,38.47-76.5,76.94-76.5v-1.91c-38.47,0-38.47,77.2-76.94,77.2S773.48,453,734.9,453,696.43,481.63,658,481.63s-38.47,26-76.94,26-38.47-28.12-76.94-28.12-38.58,6.93-77.16,6.93S388.45,505.18,350,505.18,311.51,489.1,273,489.1s-38.47-3.92-76.94-3.92-38.58-44.47-77.16-44.47S80.47,405.8,42,405.8Z" transform="translate(-18.65 -15)"/><path class="cls-2" d="M42,405.8c38.47,0,38.47,34.95,76.94,34.95s38.58,44.43,77.16,44.43,38.47,3.92,76.94,3.92,38.47,16.48,76.94,16.48,38.47-18.81,76.94-18.81,38.58-6.58,77.16-6.58S542.55,510,581,510s38.47-25.15,76.94-25.15,38.47-28.38,76.94-28.38,38.58-37.06,77.16-37.06S850.53,343.8,889,343.8v-.1c-38.47,0-38.47,75.71-76.94,75.71s-38.58,37.06-77.16,37.06S696.43,484.85,658,484.85,619.49,510,581,510s-38.47-29.81-76.94-29.81-38.58,6.58-77.16,6.58S388.45,505.58,350,505.58,311.51,489.1,273,489.1s-38.47-3.92-76.94-3.92-38.58-44.43-77.16-44.43S80.47,405.8,42,405.8Z" transform="translate(-18.65 -15)"/><path class="cls-2" d="M42,405.8c38.47,0,38.47,34.95,76.94,34.95s38.58,44.43,77.16,44.43,38.47,3.92,76.94,3.92,38.47,16.48,76.94,16.48,38.47-18.81,76.94-18.81,38.58-6.58,77.16-6.58S542.55,510,581,510s38.47-25.15,76.94-25.15,38.47-28.38,76.94-28.38,38.58-37.06,77.16-37.06,38.47-74.74,76.94-74.74h0c-38.47,0-38.47,74.74-76.94,74.74s-38.58,37.06-77.16,37.06S696.43,484.85,658,484.85,619.49,510,581,510s-38.47-29.81-76.94-29.81-38.58,6.58-77.16,6.58S388.45,505.58,350,505.58,311.51,489.1,273,489.1s-38.47-3.92-76.94-3.92-38.58-44.43-77.16-44.43S80.47,405.8,42,405.8Z" transform="translate(-18.65 -15)"/><path class="cls-2" d="M42,405.8c38.47,0,38.47,34.95,76.94,34.95s38.58,44.43,77.16,44.43,38.47,3.92,76.94,3.92,38.47,16.48,76.94,16.48,38.47-18.81,76.94-18.81,38.58-6.61,77.16-6.61S542.55,510,581,510s38.47-25.15,76.94-25.15,38.47-28.38,76.94-28.38,38.58-37.06,77.16-37.06,38.47-74.74,76.94-74.74h0c-38.47,0-38.47,74.74-76.94,74.74s-38.58,37.06-77.16,37.06S696.43,484.85,658,484.85,619.49,510,581,510s-38.47-29.85-76.94-29.85-38.58,6.62-77.16,6.62S388.45,505.58,350,505.58,311.51,489.1,273,489.1s-38.47-3.92-76.94-3.92-38.58-44.43-77.16-44.43S80.47,405.8,42,405.8Z" transform="translate(-18.65 -15)"/><path class="cls-2" d="M42,405.8c38.47,0,38.47,34.95,76.94,34.95s38.58,44.43,77.16,44.43,38.47,3.92,76.94,3.92,38.47,16.48,76.94,16.48,38.47-18.81,76.94-18.81,38.58-6.58,77.16-6.58S542.55,510,581,510s38.47-25.15,76.94-25.15,38.47-28.38,76.94-28.38,38.58-37.06,77.16-37.06,38.47-74.74,76.94-74.74h0c-38.47,0-38.47,74.74-76.94,74.74s-38.58,37.06-77.16,37.06S696.43,484.85,658,484.85,619.49,510,581,510s-38.47-29.81-76.94-29.81-38.58,6.58-77.16,6.58S388.45,505.58,350,505.58,311.51,489.1,273,489.1s-38.47-3.92-76.94-3.92-38.58-44.43-77.16-44.43S80.47,405.8,42,405.8Z" transform="translate(-18.65 -15)"/><path class="cls-2" d="M42,405.8c38.47,0,38.47,34.95,76.94,34.95s38.58,44.43,77.16,44.43,38.47,3.92,76.94,3.92,38.47,16.48,76.94,16.48,38.47-18.81,76.94-18.81,38.58-6.58,77.16-6.58S542.55,510,581,510s38.47-25.15,76.94-25.15,38.47-28.38,76.94-28.38,38.58-37.06,77.16-37.06,38.47-74.74,76.94-74.74h0c-38.47,0-38.47,74.74-76.94,74.74s-38.58,37.06-77.16,37.06S696.43,484.85,658,484.85,619.49,510,581,510s-38.47-29.81-76.94-29.81-38.58,6.58-77.16,6.58S388.45,505.58,350,505.58,311.51,489.1,273,489.1s-38.47-3.93-76.94-3.93-38.58-44.42-77.16-44.42S80.47,405.8,42,405.8Z" transform="translate(-18.65 -15)"/><path class="cls-2" d="M42,405.8c38.47,0,38.47,34.95,76.94,34.95s38.58,44.43,77.16,44.43,38.47,3.92,76.94,3.92,38.47,16.48,76.94,16.48,38.47-18.81,76.94-18.81,38.58-6.58,77.16-6.58S542.55,510,581,510s38.47-25.15,76.94-25.15,38.47-28.38,76.94-28.38,38.58-37.06,77.16-37.06,38.47-74.74,76.94-74.74h0c-38.47,0-38.47,74.74-76.94,74.74s-38.58,37.06-77.16,37.06S696.43,484.85,658,484.85,619.49,510,581,510s-38.47-29.81-76.94-29.81-38.58,6.58-77.16,6.58S388.45,505.58,350,505.58,311.51,489.1,273,489.1s-38.47-3.92-76.94-3.92-38.58-44.43-77.16-44.43S80.47,405.8,42,405.8Z" transform="translate(-18.65 -15)"/><path data-chart="Germany 2007:0k 2018:3k" id="germany" class="cls-2" d="M42,405.8c38.47,0,38.47,34.95,76.94,34.95s38.58,44.38,77.16,44.38S234.57,489,273,489s38.47,16.14,76.94,16.14,38.47-18.41,76.94-18.41,38.58-6.65,77.16-6.65S542.55,510,581,510s38.47-25.15,76.94-25.15,38.47-28.38,76.94-28.38,38.58-37.69,77.16-37.69,38.47-76.95,76.94-76.95v-1.11c-38.47,0-38.47,78-76.94,78s-38.58,37.79-77.16,37.79S696.43,484.85,658,484.85,619.49,510,581,510s-38.47-29.88-76.94-29.88-38.58,6.66-77.16,6.66S388.45,505.1,350,505.1,311.51,489,273,489s-38.47-3.92-76.94-3.92-38.58-44.36-77.16-44.36S80.47,405.8,42,405.8Z" transform="translate(-18.65 -15)"/><path class="cls-2" d="M42,405.8c38.47,0,38.47,34.95,76.94,34.95s38.58,44.43,77.16,44.43,38.47,3.92,76.94,3.92,38.47,16.48,76.94,16.48,38.47-18.81,76.94-18.81,38.58-6.58,77.16-6.58S542.55,510,581,510s38.47-25.15,76.94-25.15,38.47-28.38,76.94-28.38,38.58-37.06,77.16-37.06,38.47-74.74,76.94-74.74h0c-38.47,0-38.47,74.74-76.94,74.74s-38.58,37.06-77.16,37.06S696.43,484.85,658,484.85,619.49,510,581,510s-38.47-29.81-76.94-29.81-38.58,6.58-77.16,6.58S388.45,505.58,350,505.58,311.51,489.1,273,489.1s-38.47-3.92-76.94-3.92-38.58-44.43-77.16-44.43S80.47,405.8,42,405.8Z" transform="translate(-18.65 -15)"/><path class="cls-2" d="M42,405.8c38.47,0,38.47,34.95,76.94,34.95s38.58,44.43,77.16,44.43,38.47,3.92,76.94,3.92,38.47,16.48,76.94,16.48,38.47-18.81,76.94-18.81,38.58-6.58,77.16-6.58S542.55,510,581,510s38.47-25.15,76.94-25.15,38.47-28.38,76.94-28.38,38.58-37.06,77.16-37.06,38.47-74.79,76.94-74.79h0c-38.47,0-38.47,74.8-76.94,74.8s-38.58,37.06-77.16,37.06S696.43,484.85,658,484.85,619.49,510,581,510s-38.47-29.81-76.94-29.81-38.58,6.58-77.16,6.58S388.45,505.58,350,505.58,311.51,489.1,273,489.1s-38.47-3.92-76.94-3.92-38.58-44.43-77.16-44.43S80.47,405.8,42,405.8Z" transform="translate(-18.65 -15)"/><path class="cls-2" d="M42,405.8c38.47,0,38.47,34.95,76.94,34.95s38.58,44.36,77.16,44.36,38.47,3.94,76.94,3.94,38.47,16.32,76.94,16.32,38.47-18.63,76.94-18.63,38.58-6.63,77.16-6.63S542.55,510,581,510s38.47-25.24,76.94-25.24,38.47-28.43,76.94-28.43,38.58-36.92,77.16-36.92,38.47-74.86,76.94-74.86v0c-38.47,0-38.47,74.88-76.94,74.88s-38.58,36.87-77.16,36.87S696.43,484.71,658,484.71,619.49,510,581,510s-38.47-29.88-76.94-29.88-38.58,6.63-77.16,6.63-38.47,18.6-76.94,18.6S311.51,489,273,489s-38.47-4-76.94-4-38.58-44.32-77.16-44.32S80.47,405.8,42,405.8Z" transform="translate(-18.65 -15)"/><path class="cls-2" d="M42,405.8c38.47,0,38.47,34.95,76.94,34.95s38.58,44.43,77.16,44.43,38.47,3.92,76.94,3.92,38.47,16.48,76.94,16.48,38.47-18.81,76.94-18.81,38.58-6.69,77.16-6.69S542.55,510,581,510s38.47-25.15,76.94-25.15,38.47-28.38,76.94-28.38,38.58-37.06,77.16-37.06,38.47-74.74,76.94-74.74h0c-38.47,0-38.47,74.74-76.94,74.74s-38.58,37.06-77.16,37.06S696.43,484.85,658,484.85,619.49,510,581,510s-38.47-29.93-76.94-29.93-38.58,6.7-77.16,6.7S388.45,505.58,350,505.58,311.51,489.1,273,489.1s-38.47-3.92-76.94-3.92-38.58-44.43-77.16-44.43S80.47,405.8,42,405.8Z" transform="translate(-18.65 -15)"/><path class="cls-2" d="M42,405.8c38.47,0,38.47,34.95,76.94,34.95s38.58,44.43,77.16,44.43S234.57,489,273,489s38.47,16.46,76.94,16.46,38.47-18.76,76.94-18.76,38.58-6.49,77.16-6.49,38.47,29,76.94,29,38.47-24.39,76.94-24.39,38.47-28.31,76.94-28.31,38.58-37.22,77.16-37.22,38.47-76.6,76.94-76.6v-.39c-38.47,0-38.47,76.94-76.94,76.94s-38.58,37.27-77.16,37.27S696.43,484.75,658,484.75,619.49,509,581,509s-38.47-28.77-76.94-28.77-38.58,6.47-77.16,6.47S388.45,505.42,350,505.42,311.51,489,273,489s-38.47-3.78-76.94-3.78-38.58-44.43-77.16-44.43S80.47,405.8,42,405.8Z" transform="translate(-18.65 -15)"/><path data-chart="Hong Kong 2007:363k 2018:59k" id="hong_kong" data-name="hong kong" class="cls-2" d="M42,271.2c38.47,0,38.47,4.11,76.94,4.11s38.58,196.13,77.16,196.13,38.47-6.93,76.94-6.93,38.47,17.55,76.94,17.55,38.47-17.86,76.94-17.86,38.58-32.15,77.16-32.15,38.47,21.17,76.94,21.17S619.49,433.7,658,433.7,696.43,416,734.9,416s38.58-79.68,77.16-79.68S850.53,263,889,263V240.7c-38.47,0-38.47,10.06-76.94,10.06S773.48,257,734.9,257,696.43,275.14,658,275.14,619.49,314,581,314s-38.47,8.06-76.94,8.06-38.58,26.82-77.16,26.82S388.45,332.84,350,332.84,311.51,277.93,273,277.93,234.57,268,196.1,268,157.52,99.25,118.94,99.25,80.47,134.2,42,134.2Z" transform="translate(-18.65 -15)"/><path class="cls-2" d="M42,405.8c38.47,0,38.47,34.95,76.94,34.95s38.58,44.43,77.16,44.43,38.47,3.88,76.94,3.88,38.47,16.52,76.94,16.52,38.47-18.81,76.94-18.81,38.58-6.58,77.16-6.58S542.55,510,581,510s38.47-25.15,76.94-25.15,38.47-28.38,76.94-28.38,38.58-37.06,77.16-37.06,38.47-74.74,76.94-74.74h0c-38.47,0-38.47,74.74-76.94,74.74s-38.58,37-77.16,37S696.43,484.85,658,484.85,619.49,510,581,510s-38.47-29.81-76.94-29.81-38.58,6.58-77.16,6.58S388.45,505.58,350,505.58,311.51,489.05,273,489.05s-38.47-3.87-76.94-3.87-38.58-44.43-77.16-44.43S80.47,405.8,42,405.8Z" transform="translate(-18.65 -15)"/><path class="cls-2" d="M42,405.8c38.47,0,38.47,34.95,76.94,34.95s38.58,44.43,77.16,44.43,38.47,3.92,76.94,3.92,38.47,16.46,76.94,16.46,38.47-18.79,76.94-18.79,38.58-6.58,77.16-6.58S542.55,510,581,510s38.47-25.15,76.94-25.15,38.47-28.38,76.94-28.38,38.58-37.06,77.16-37.06,38.47-74.74,76.94-74.74h0c-38.47,0-38.47,74.74-76.94,74.74s-38.58,37.06-77.16,37.06S696.43,484.85,658,484.85,619.49,510,581,510s-38.47-29.81-76.94-29.81-38.58,6.58-77.16,6.58S388.45,505.55,350,505.55,311.51,489.1,273,489.1s-38.47-3.92-76.94-3.92-38.58-44.43-77.16-44.43S80.47,405.8,42,405.8Z" transform="translate(-18.65 -15)"/><path data-chart="India 2007:5k 2018:5k" id="india" class="cls-2" d="M42,402.47c38.47,0,38.47,36.07,76.94,36.07s38.58,43.85,77.16,43.85,38.47,6.41,76.94,6.41S311.51,504,350,504s38.47-18.47,76.94-18.47,38.58-8.63,77.16-8.63S542.55,509,581,509s38.47-25.48,76.94-25.48,38.47-27.87,76.94-27.87,38.58-38.7,77.16-38.7,38.47-79.53,76.94-79.53v-2c-38.47,0-38.47,80.44-76.94,80.44s-38.58,39.47-77.16,39.47S696.43,482.88,658,482.88,619.49,508.34,581,508.34s-38.47-33.09-76.94-33.09-38.58,9.37-77.16,9.37S388.45,503.07,350,503.07,311.51,488.14,273,488.14s-38.47-7.67-76.94-7.67-38.58-42.91-77.16-42.91S80.47,400.68,42,400.68Z" transform="translate(-18.65 -15)"/><path data-chart="Indonesia 2007:1k 2018:13k" id="indonesia" class="cls-2" d="M42,404.33c38.47,0,38.47,33.23,76.94,33.23s38.58,37.77,77.16,37.77,38.47,1.92,76.94,1.92,38.47,15.44,76.94,15.44,38.47-21.35,76.94-21.35,38.58-24,77.16-24S542.55,474.9,581,474.9s38.47-13,76.94-13,38.47-10,76.94-10,38.58-49.13,77.16-49.13,38.47-69.8,76.94-69.8v-5c-38.47,0-38.47,67.38-76.94,67.38s-38.58,48.06-77.16,48.06-38.47,6.16-76.94,6.16-38.47,3.74-76.94,3.74-38.47-21.17-76.94-21.17S465.5,464.2,426.92,464.2,388.45,488.27,350,488.27,311.51,464.51,273,464.51s-38.47,6.93-76.94,6.93-38.58-35-77.16-35S80.47,403.93,42,403.93Z" transform="translate(-18.65 -15)"/><path class="cls-2" d="M42,405c38.47,0,38.47,35.78,76.94,35.78s38.58,44.43,77.16,44.43,38.47,3.92,76.94,3.92,38.47,16.48,76.94,16.48,38.47-18.81,76.94-18.81,38.58-6.58,77.16-6.58S542.55,510,581,510s38.47-25.15,76.94-25.15,38.47-28.38,76.94-28.38,38.58-37.06,77.16-37.06,38.47-74.74,76.94-74.74h0c-38.47,0-38.47,74.74-76.94,74.74s-38.58,37.06-77.16,37.06S696.43,484.85,658,484.85,619.49,510,581,510s-38.47-29.81-76.94-29.81-38.58,6.57-77.16,6.57S388.45,505.58,350,505.58,311.51,489.1,273,489.1s-38.47-3.92-76.94-3.92-38.58-44.43-77.16-44.43S80.47,404.68,42,404.68Z" transform="translate(-18.65 -15)"/><path class="cls-2" d="M42,405.8c38.47,0,38.47,34.95,76.94,34.95s38.58,44.4,77.16,44.4,38.47,4,76.94,4,38.47,16.48,76.94,16.48,38.47-18.82,76.94-18.82,38.58-6.69,77.16-6.69,38.47,29.87,76.94,29.87,38.47-25.09,76.94-25.09,38.47-28.38,76.94-28.38,38.58-37.06,77.16-37.06,38.47-74.74,76.94-74.74h0c-38.47,0-38.47,74.74-76.94,74.74s-38.58,37.06-77.16,37.06S696.43,484.85,658,484.85,619.49,509.93,581,509.93,542.55,480,504.08,480s-38.58,6.73-77.16,6.73S388.45,505.58,350,505.58,311.51,489.1,273,489.1s-38.47-4-76.94-4-38.58-44.39-77.16-44.39S80.47,405.8,42,405.8Z" transform="translate(-18.65 -15)"/><path class="cls-2" d="M42,405.25c38.47,0,38.47,34.81,76.94,34.81s38.58,45.12,77.16,45.12,38.47,3.92,76.94,3.92,38.47,16.18,76.94,16.18,38.47-18.57,76.94-18.57,38.58-6.52,77.16-6.52S542.55,510,581,510s38.47-25.15,76.94-25.15,38.47-28.38,76.94-28.38,38.58-37.06,77.16-37.06,38.47-74.74,76.94-74.74h0c-38.47,0-38.47,74.74-76.94,74.74s-38.58,37.06-77.16,37.06S696.43,484.85,658,484.85,619.49,510,581,510s-38.47-29.81-76.94-29.81-38.58,6.5-77.16,6.5S388.45,505.24,350,505.24,311.51,489.1,273,489.1s-38.47-3.92-76.94-3.92-38.58-45.38-77.16-45.38S80.47,405,42,405Z" transform="translate(-18.65 -15)"/><path class="cls-2" d="M42,405.8c38.47,0,38.47,34.95,76.94,34.95s38.58,44.43,77.16,44.43,38.47,3.91,76.94,3.91,38.47,16.49,76.94,16.49,38.47-18.81,76.94-18.81,38.58-6.58,77.16-6.58S542.55,510,581,510s38.47-25.15,76.94-25.15,38.47-28.38,76.94-28.38,38.58-37.06,77.16-37.06,38.47-74.74,76.94-74.74h0c-38.47,0-38.47,74.74-76.94,74.74s-38.58,37.06-77.16,37.06S696.43,484.85,658,484.85,619.49,510,581,510s-38.47-29.81-76.94-29.81-38.58,6.58-77.16,6.58S388.45,505.58,350,505.58,311.51,489.09,273,489.09s-38.47-3.91-76.94-3.91-38.58-44.43-77.16-44.43S80.47,405.8,42,405.8Z" transform="translate(-18.65 -15)"/><path class="cls-2" d="M42,405.63c38.47,0,38.47,34.17,76.94,34.17s38.58,45.27,77.16,45.27,38.47,3.86,76.94,3.86,38.47,15.95,76.94,15.95,38.47-18.81,76.94-18.81,38.58-6.54,77.16-6.54,38.47,30,76.94,30,38.47-25,76.94-25,38.47-28.23,76.94-28.23,38.58-37.73,77.16-37.73,38.47-75.38,76.94-75.38v-.22c-38.47,0-38.47,75.29-76.94,75.29s-38.58,38-77.16,38S696.43,484.38,658,484.38s-38.47,25-76.94,25-38.47-30-76.94-30-38.58,6.46-77.16,6.46S388.45,504.65,350,504.65,311.51,488.9,273,488.9,234.57,485,196.1,485s-38.58-45.55-77.16-45.55S80.47,405.57,42,405.57Z" transform="translate(-18.65 -15)"/><path class="cls-2" d="M42,405.8c38.47,0,38.47,34.95,76.94,34.95s38.58,44.43,77.16,44.43,38.47,3.92,76.94,3.92,38.47,16.48,76.94,16.48,38.47-18.81,76.94-18.81,38.58-6.58,77.16-6.58S542.55,510,581,510s38.47-25.15,76.94-25.15,38.47-28.38,76.94-28.38,38.58-37.06,77.16-37.06,38.47-74.74,76.94-74.74h0c-38.47,0-38.47,74.74-76.94,74.74s-38.58,37.06-77.16,37.06S696.43,484.85,658,484.85,619.49,510,581,510s-38.47-29.81-76.94-29.81-38.58,6.58-77.16,6.58S388.45,505.58,350,505.58,311.51,489.1,273,489.1s-38.47-3.92-76.94-3.92-38.58-44.43-77.16-44.43S80.47,405.8,42,405.8Z" transform="translate(-18.65 -15)"/><path class="cls-2" d="M42,405.8c38.47,0,38.47,34.95,76.94,34.95s38.58,44.43,77.16,44.43,38.47,3.92,76.94,3.92,38.47,16.48,76.94,16.48,38.47-18.81,76.94-18.81,38.58-6.58,77.16-6.58S542.55,510,581,510s38.47-25.15,76.94-25.15,38.47-28.38,76.94-28.38,38.58-37.06,77.16-37.06S850.53,344.5,889,344.5v0c-38.47,0-38.47,74.93-76.94,74.93s-38.58,37.06-77.16,37.06S696.43,484.85,658,484.85,619.49,510,581,510s-38.47-29.81-76.94-29.81-38.58,6.58-77.16,6.58S388.45,505.58,350,505.58,311.51,489.1,273,489.1s-38.47-3.92-76.94-3.92-38.58-44.43-77.16-44.43S80.47,405.8,42,405.8Z" transform="translate(-18.65 -15)"/><path class="cls-2" d="M42,405.8c38.47,0,38.47,34.95,76.94,34.95s38.58,44.43,77.16,44.43,38.47,3.92,76.94,3.92,38.47,16.48,76.94,16.48,38.47-18.81,76.94-18.81,38.58-6.58,77.16-6.58S542.55,510,581,510s38.47-25.15,76.94-25.15,38.47-28.38,76.94-28.38,38.58-37.06,77.16-37.06,38.47-74.74,76.94-74.74h0c-38.47,0-38.47,74.74-76.94,74.74s-38.58,37.06-77.16,37.06S696.43,484.85,658,484.85,619.49,510,581,510s-38.47-29.81-76.94-29.81-38.58,6.58-77.16,6.58S388.45,505.58,350,505.58,311.51,489.1,273,489.1s-38.47-3.92-76.94-3.92-38.58-44.43-77.16-44.43S80.47,405.8,42,405.8Z" transform="translate(-18.65 -15)"/><path data-chart="South Korea 2007:1k 2018:19k" id="south_korea" data-name="south korea" class="cls-2" d="M42,404.68c38.47,0,38.47,34.81,76.94,34.81s38.58,44.06,77.16,44.06,38.47,3.09,76.94,3.09S311.51,502,350,502s38.47-17.35,76.94-17.35,38.58-9.37,77.16-9.37,38.47,32.4,76.94,32.4S619.49,480,658,480s38.47-25.15,76.94-25.15,38.58-41.52,77.16-41.52,38.47-85.42,76.94-85.42v-7.09c-38.47,0-38.47,90.8-76.94,90.8S773.48,454,734.9,454,696.43,478.24,658,478.24,619.49,504.58,581,504.58,542.55,473,504.08,473s-38.58,10.28-77.16,10.28S388.45,500.5,350,500.5,311.51,484.9,273,484.9s-38.47-2.51-76.94-2.51-38.58-43.85-77.16-43.85S80.47,404.33,42,404.33Z" transform="translate(-18.65 -15)"/><path class="cls-2" d="M42,405.8c38.47,0,38.47,34.95,76.94,34.95s38.58,44.43,77.16,44.43,38.47,3.92,76.94,3.92,38.47,16.38,76.94,16.38,38.47-18.71,76.94-18.71,38.58-6.58,77.16-6.58S542.55,510,581,510s38.47-25.15,76.94-25.15,38.47-28.38,76.94-28.38,38.58-37.06,77.16-37.06,38.47-74.74,76.94-74.74h0c-38.47,0-38.47,74.74-76.94,74.74s-38.58,37.06-77.16,37.06S696.43,484.85,658,484.85,619.49,510,581,510s-38.47-29.81-76.94-29.81-38.58,6.58-77.16,6.58-38.47,18.7-76.94,18.7S311.51,489.1,273,489.1s-38.47-3.92-76.94-3.92-38.58-44.43-77.16-44.43S80.47,405.8,42,405.8Z" transform="translate(-18.65 -15)"/><path class="cls-2" d="M42,405.8c38.47,0,38.47,34.95,76.94,34.95s38.58,44.43,77.16,44.43,38.47,3.91,76.94,3.91,38.47,16.36,76.94,16.36,38.47-18.68,76.94-18.68,38.58-6.58,77.16-6.58S542.55,510,581,510s38.47-25.15,76.94-25.15,38.47-28.38,76.94-28.38,38.58-37.06,77.16-37.06,38.47-74.8,76.94-74.8v0c-38.47,0-38.47,74.82-76.94,74.82s-38.58,37.06-77.16,37.06S696.43,484.85,658,484.85,619.49,510,581,510s-38.47-29.81-76.94-29.81-38.58,6.58-77.16,6.58S388.45,505.44,350,505.44,311.51,489.08,273,489.08s-38.47-3.9-76.94-3.9-38.58-44.43-77.16-44.43S80.47,405.8,42,405.8Z" transform="translate(-18.65 -15)"/><path class="cls-2" d="M42,405.8c38.47,0,38.47,34.95,76.94,34.95s38.58,44.43,77.16,44.43,38.47,3.92,76.94,3.92,38.47,16.48,76.94,16.48,38.47-18.81,76.94-18.81,38.58-6.58,77.16-6.58S542.55,510,581,510s38.47-25.42,76.94-25.42,38.47-28.11,76.94-28.11,38.58-37.06,77.16-37.06,38.47-74.83,76.94-74.83v0c-38.47,0-38.47,74.85-76.94,74.85s-38.58,37.06-77.16,37.06-38.47,28-76.94,28S619.49,510,581,510s-38.47-29.81-76.94-29.81-38.58,6.58-77.16,6.58S388.45,505.58,350,505.58,311.51,489.1,273,489.1s-38.47-3.92-76.94-3.92-38.58-44.43-77.16-44.43S80.47,405.8,42,405.8Z" transform="translate(-18.65 -15)"/><path class="cls-2" d="M42,405.8c38.47,0,38.47,34.95,76.94,34.95s38.58,44.43,77.16,44.43,38.47,3.92,76.94,3.92,38.47,16.48,76.94,16.48,38.47-18.81,76.94-18.81,38.58-6.64,77.16-6.64S542.55,510,581,510s38.47-25.15,76.94-25.15,38.47-28.38,76.94-28.38,38.58-37.06,77.16-37.06,38.47-74.74,76.94-74.74h0c-38.47,0-38.47,74.74-76.94,74.74s-38.58,37.06-77.16,37.06S696.43,484.85,658,484.85,619.49,510,581,510s-38.47-29.88-76.94-29.88-38.58,6.65-77.16,6.65-38.47,18.8-76.94,18.8S311.51,489.1,273,489.1s-38.47-3.92-76.94-3.92-38.58-44.43-77.16-44.43S80.47,405.8,42,405.8Z" transform="translate(-18.65 -15)"/><path data-chart="Malaysia 2007:4k 2018:120k" id="malaysia" class="cls-2" d="M42,403.93c38.47,0,38.47,29,76.94,29s38.58,51.54,77.16,51.54S234.57,481,273,481s38.47,16.07,76.94,16.07,38.47-21.2,76.94-21.2,38.58-15.43,77.16-15.43,38.47,23.4,76.94,23.4S619.49,471.3,658,471.3s38.47-28,76.94-28,38.58-82,77.16-82S850.53,240.7,889,240.7V195.33c-38.47,0-38.47,141-76.94,141s-38.58,98.49-77.16,98.49-38.47,27-76.94,27-38.47,13-76.94,13-38.47-27.54-76.94-27.54-38.58,24-77.16,24S388.45,492.69,350,492.69,311.51,477.25,273,477.25s-38.47,6.3-76.94,6.3S157.52,431,118.94,431,80.47,402.47,42,402.47Z" transform="translate(-18.65 -15)"/><path class="cls-2" d="M42,405.8c38.47,0,38.47,34.95,76.94,34.95s38.58,44.43,77.16,44.43,38.47,3.92,76.94,3.92,38.47,16.48,76.94,16.48,38.47-18.81,76.94-18.81,38.58-6.58,77.16-6.58,38.47,29.65,76.94,29.65,38.47-25,76.94-25,38.47-28.38,76.94-28.38,38.58-37.06,77.16-37.06,38.47-74.74,76.94-74.74h0c-38.47,0-38.47,74.74-76.94,74.74s-38.58,37.06-77.16,37.06S696.43,484.85,658,484.85s-38.47,25-76.94,25-38.47-29.62-76.94-29.62-38.58,6.58-77.16,6.58S388.45,505.58,350,505.58,311.51,489.1,273,489.1s-38.47-3.92-76.94-3.92-38.58-44.43-77.16-44.43S80.47,405.8,42,405.8Z" transform="translate(-18.65 -15)"/><path class="cls-2" d="M42,405.8c38.47,0,38.47,34.95,76.94,34.95s38.58,44.43,77.16,44.43,38.47,3.92,76.94,3.92,38.47,16.48,76.94,16.48,38.47-18.81,76.94-18.81,38.58-6.58,77.16-6.58S542.55,510,581,510s38.47-25.15,76.94-25.15,38.47-28.38,76.94-28.38,38.58-37.06,77.16-37.06,38.47-74.74,76.94-74.74h0c-38.47,0-38.47,74.74-76.94,74.74s-38.58,37.06-77.16,37.06S696.43,484.84,658,484.84,619.49,510,581,510s-38.47-29.81-76.94-29.81-38.58,6.58-77.16,6.58S388.45,505.58,350,505.58,311.51,489.1,273,489.1s-38.47-3.92-76.94-3.92-38.58-44.43-77.16-44.43S80.47,405.8,42,405.8Z" transform="translate(-18.65 -15)"/><path class="cls-2" d="M42,405.8c38.47,0,38.47,34.95,76.94,34.95s38.58,44.43,77.16,44.43,38.47,3.92,76.94,3.92,38.47,16.48,76.94,16.48,38.47-18.81,76.94-18.81,38.58-6.58,77.16-6.58S542.55,510,581,510s38.47-25.15,76.94-25.15,38.47-28.38,76.94-28.38,38.58-37.06,77.16-37.06,38.47-74.74,76.94-74.74h0c-38.47,0-38.47,74.74-76.94,74.74s-38.58,37.06-77.16,37.06S696.43,484.85,658,484.85,619.49,510,581,510s-38.47-29.81-76.94-29.81-38.58,6.58-77.16,6.58S388.45,505.58,350,505.58,311.51,489.1,273,489.1s-38.47-3.92-76.94-3.92-38.58-44.43-77.16-44.43S80.47,405.8,42,405.8Z" transform="translate(-18.65 -15)"/><path class="cls-2" d="M42,405.8c38.47,0,38.47,34.95,76.94,34.95s38.58,44.43,77.16,44.43,38.47,3.92,76.94,3.92,38.47,16.47,76.94,16.47,38.47-18.8,76.94-18.8,38.58-6.58,77.16-6.58S542.55,510,581,510s38.47-25.15,76.94-25.15,38.47-28.38,76.94-28.38,38.58-37.06,77.16-37.06,38.47-74.74,76.94-74.74h0c-38.47,0-38.47,74.74-76.94,74.74s-38.58,37.06-77.16,37.06S696.43,484.85,658,484.85,619.49,510,581,510s-38.47-29.81-76.94-29.81-38.58,6.58-77.16,6.58S388.45,505.56,350,505.56,311.51,489.1,273,489.1s-38.47-3.92-76.94-3.92-38.58-44.43-77.16-44.43S80.47,405.8,42,405.8Z" transform="translate(-18.65 -15)"/><path class="cls-2" d="M42,405.57c38.47,0,38.47,35.18,76.94,35.18s38.58,44.43,77.16,44.43,38.47,3.92,76.94,3.92,38.47,16.48,76.94,16.48,38.47-18.81,76.94-18.81,38.58-6.58,77.16-6.58S542.55,510,581,510s38.47-25.15,76.94-25.15,38.47-28.38,76.94-28.38,38.58-37.06,77.16-37.06,38.47-74.74,76.94-74.74h0c-38.47,0-38.47,74.74-76.94,74.74s-38.58,37.06-77.16,37.06S696.43,484.85,658,484.85,619.49,510,581,510s-38.47-29.81-76.94-29.81-38.58,6.58-77.16,6.58S388.45,505.58,350,505.58,311.51,489.1,273,489.1s-38.47-3.92-76.94-3.92-38.58-44.43-77.16-44.43S80.47,405.5,42,405.5Z" transform="translate(-18.65 -15)"/><path class="cls-2" d="M42,405.79c38.47,0,38.47,34.92,76.94,34.92s38.58,44.47,77.16,44.47,38.47,3.92,76.94,3.92,38.47,16.48,76.94,16.48,38.47-18.81,76.94-18.81,38.58-6.58,77.16-6.58S542.55,510,581,510s38.47-25.15,76.94-25.15,38.47-28.38,76.94-28.38S773.48,419,812.06,419s38.47-75.36,76.94-75.36v-.12c-38.47,0-38.47,75.4-76.94,75.4s-38.58,37.6-77.16,37.6S696.43,484.85,658,484.85,619.49,510,581,510s-38.47-29.81-76.94-29.81-38.58,6.58-77.16,6.58S388.45,505.58,350,505.58,311.51,489.1,273,489.1s-38.47-3.92-76.94-3.92-38.58-44.47-77.16-44.47S80.47,405.79,42,405.79Z" transform="translate(-18.65 -15)"/><path class="cls-2" d="M42,405.78c38.47,0,38.47,35,76.94,35s38.58,44.43,77.16,44.43,38.47,3.92,76.94,3.92,38.47,16.48,76.94,16.48,38.47-18.81,76.94-18.81,38.58-6.58,77.16-6.58S542.55,510,581,510s38.47-25.15,76.94-25.15,38.47-28.38,76.94-28.38,38.58-37.06,77.16-37.06,38.47-74.74,76.94-74.74h0c-38.47,0-38.47,74.74-76.94,74.74s-38.58,37.06-77.16,37.06S696.43,484.85,658,484.85,619.49,510,581,510s-38.47-29.81-76.94-29.81-38.58,6.58-77.16,6.58S388.45,505.58,350,505.58,311.51,489.1,273,489.1s-38.47-3.92-76.94-3.92-38.58-44.43-77.16-44.43-38.47-35-76.94-35Z" transform="translate(-18.65 -15)"/><path class="cls-2" d="M42,405.77c38.47,0,38.47,35,76.94,35s38.58,44,77.16,44S234.57,489,273,489s38.47,16.6,76.94,16.6,38.47-18.94,76.94-18.94,38.58-6.45,77.16-6.45,38.47,29.74,76.94,29.74,38.47-25.09,76.94-25.09,38.47-28.35,76.94-28.35,38.58-37.06,77.16-37.06,38.47-74.74,76.94-74.74h0c-38.47,0-38.47,74.74-76.94,74.74s-38.58,37.06-77.16,37.06S696.43,484.81,658,484.81,619.49,509.89,581,509.89s-38.47-29.72-76.94-29.72-38.58,6.41-77.16,6.41-38.47,19-76.94,19S311.51,488.93,273,488.93s-38.47-4.29-76.94-4.29-38.58-43.9-77.16-43.9-38.47-35-76.94-35Z" transform="translate(-18.65 -15)"/><path class="cls-2" d="M42,405.8c38.47,0,38.47,34.95,76.94,34.95s38.58,44.43,77.16,44.43,38.47,3.92,76.94,3.92,38.47,16.48,76.94,16.48,38.47-19,76.94-19,38.58-6.39,77.16-6.39S542.55,510,581,510s38.47-25.15,76.94-25.15,38.47-28.38,76.94-28.38,38.58-37.06,77.16-37.06,38.47-74.74,76.94-74.74h0c-38.47,0-38.47,74.74-76.94,74.74s-38.58,37.06-77.16,37.06S696.43,484.85,658,484.85,619.49,510,581,510s-38.47-29.81-76.94-29.81-38.58,6.36-77.16,6.36-38.47,19-76.94,19S311.51,489.1,273,489.1s-38.47-3.92-76.94-3.92-38.58-44.43-77.16-44.43S80.47,405.8,42,405.8Z" transform="translate(-18.65 -15)"/><path class="cls-2" d="M42,405.8c38.47,0,38.47,34.93,76.94,34.93s38.58,44.45,77.16,44.45,38.47,3.92,76.94,3.92,38.47,15.55,76.94,15.55,38.47-17.88,76.94-17.88,38.58-6.59,77.16-6.59S542.55,510,581,510s38.47-25.15,76.94-25.15,38.47-28.38,76.94-28.38,38.58-37.09,77.16-37.09,38.47-74.71,76.94-74.71h0c-38.47,0-38.47,74.69-76.94,74.69s-38.58,37.11-77.16,37.11S696.43,484.85,658,484.85,619.49,510,581,510s-38.47-29.82-76.94-29.82-38.58,6.59-77.16,6.59S388.45,504.41,350,504.41,311.51,489.1,273,489.1s-38.47-3.92-76.94-3.92-38.58-44.46-77.16-44.46S80.47,405.8,42,405.8Z" transform="translate(-18.65 -15)"/><path class="cls-2" d="M42,405.8c38.47,0,38.47,34.95,76.94,34.95s38.58,44.43,77.16,44.43,38.47,3.92,76.94,3.92,38.47,16.48,76.94,16.48,38.47-18.81,76.94-18.81,38.58-6.58,77.16-6.58S542.55,510,581,510s38.47-25.15,76.94-25.15,38.47-28.38,76.94-28.38,38.58-37.06,77.16-37.06,38.47-74.74,76.94-74.74h0c-38.47,0-38.47,74.74-76.94,74.74s-38.58,37.06-77.16,37.06S696.43,484.85,658,484.85,619.49,510,581,510s-38.47-29.81-76.94-29.81-38.58,6.58-77.16,6.58S388.45,505.58,350,505.58,311.51,489.1,273,489.1s-38.47-3.92-76.94-3.92-38.58-44.43-77.16-44.43S80.47,405.8,42,405.8Z" transform="translate(-18.65 -15)"/><path class="cls-2" d="M42,405.8c38.47,0,38.47,34.95,76.94,34.95s38.58,44.43,77.16,44.43,38.47,3.92,76.94,3.92,38.47,16.48,76.94,16.48,38.47-18.81,76.94-18.81,38.58-6.58,77.16-6.58S542.55,510,581,510s38.47-25.15,76.94-25.15,38.47-28.38,76.94-28.38,38.58-37.06,77.16-37.06,38.47-74.74,76.94-74.74h0c-38.47,0-38.47,74.74-76.94,74.74s-38.58,37.06-77.16,37.06S696.43,484.85,658,484.85,619.49,510,581,510s-38.47-29.81-76.94-29.81-38.58,6.58-77.16,6.58S388.45,505.58,350,505.58,311.51,489.1,273,489.1s-38.47-3.92-76.94-3.92-38.58-44.43-77.16-44.43S80.47,405.8,42,405.8Z" transform="translate(-18.65 -15)"/><path class="cls-2" d="M42,405.8c38.47,0,38.47,34.89,76.94,34.89s38.58,44.45,77.16,44.45,38.47,4,76.94,4,38.47,16.42,76.94,16.42,38.47-18.75,76.94-18.75,38.58-6.8,77.16-6.8,38.47,30,76.94,30,38.47-25.11,76.94-25.11,38.47-28.49,76.94-28.49,38.58-38.13,77.16-38.13,38.47-74.76,76.94-74.76v-.15c-38.47,0-38.47,74.53-76.94,74.53s-38.58,38.47-77.16,38.47S696.43,484.85,658,484.85,619.49,510,581,510s-38.47-30-76.94-30-38.58,6.86-77.16,6.86S388.45,505.52,350,505.52,311.51,489.1,273,489.1s-38.47-4-76.94-4-38.58-44.46-77.16-44.46S80.47,405.8,42,405.8Z" transform="translate(-18.65 -15)"/><path class="cls-2" d="M42,405.8c38.47,0,38.47,34.95,76.94,34.95s38.58,44.43,77.16,44.43,38.47,3.92,76.94,3.92,38.47,16.48,76.94,16.48,38.47-18.81,76.94-18.81,38.58-6.58,77.16-6.58S542.55,510,581,510s38.47-25.15,76.94-25.15,38.47-28.38,76.94-28.38,38.58-37.06,77.16-37.06,38.47-74.74,76.94-74.74h0c-38.47,0-38.47,74.74-76.94,74.74s-38.58,37.06-77.16,37.06S696.43,484.85,658,484.85,619.49,510,581,510s-38.47-29.81-76.94-29.81-38.58,6.58-77.16,6.58S388.45,505.58,350,505.58,311.51,489.1,273,489.1s-38.47-3.92-76.94-3.92-38.58-44.43-77.16-44.43S80.47,405.8,42,405.8Z" transform="translate(-18.65 -15)"/><path class="cls-2" d="M42,405.8c38.47,0,38.47,34.95,76.94,34.95s38.58,44.43,77.16,44.43,38.47,3.92,76.94,3.92,38.47,16.48,76.94,16.48,38.47-18.81,76.94-18.81,38.58-6.58,77.16-6.58,38.47,29.39,76.94,29.39,38.47-24.73,76.94-24.73,38.47-28.38,76.94-28.38,38.58-37.06,77.16-37.06,38.47-74.74,76.94-74.74h0c-38.47,0-38.47,74.74-76.94,74.74s-38.58,37.06-77.16,37.06S696.43,484.85,658,484.85,619.49,509.5,581,509.5s-38.47-29.31-76.94-29.31-38.58,6.58-77.16,6.58S388.45,505.58,350,505.58,311.51,489.1,273,489.1s-38.47-3.92-76.94-3.92-38.58-44.43-77.16-44.43S80.47,405.8,42,405.8Z" transform="translate(-18.65 -15)"/><path class="cls-2" d="M42,405.8c38.47,0,38.47,34.95,76.94,34.95s38.58,44.43,77.16,44.43,38.47,3.92,76.94,3.92,38.47,16.48,76.94,16.48,38.47-18.81,76.94-18.81,38.58-6.58,77.16-6.58S542.55,510,581,510s38.47-25.15,76.94-25.15,38.47-28.38,76.94-28.38,38.58-37.11,77.16-37.11,38.47-75.3,76.94-75.3V344c-38.47,0-38.47,75.34-76.94,75.34s-38.58,37.15-77.16,37.15S696.43,484.85,658,484.85,619.49,510,581,510s-38.47-29.81-76.94-29.81-38.58,6.58-77.16,6.58S388.45,505.58,350,505.58,311.51,489.1,273,489.1s-38.47-3.92-76.94-3.92-38.58-44.43-77.16-44.43S80.47,405.8,42,405.8Z" transform="translate(-18.65 -15)"/><path data-chart="Philippines 2007:0k 2018:4k" id="philippines" class="cls-2" d="M42,405.42c38.47,0,38.47,35.29,76.94,35.29s38.58,44.47,77.16,44.47,38.47,3.9,76.94,3.9,38.47,16.34,76.94,16.34,38.47-18.65,76.94-18.65S465.5,479,504.08,479s38.47,30.36,76.94,30.36,38.47-25.24,76.94-25.24,38.47-28.89,76.94-28.89,38.58-37.41,77.16-37.41,38.47-77.13,76.94-77.13v-1.43c-38.47,0-38.47,77.62-76.94,77.62s-38.58,37.91-77.16,37.91S696.43,483.93,658,483.93,619.49,509.17,581,509.17s-38.47-30.67-76.94-30.67-38.58,8.27-77.16,8.27S388.45,505.4,350,505.4,311.51,489.07,273,489.07s-38.47-3.89-76.94-3.89-38.58-44.49-77.16-44.49S80.47,405.25,42,405.25Z" transform="translate(-18.65 -15)"/><path class="cls-2" d="M42,405.8c38.47,0,38.47,34.95,76.94,34.95s38.58,44.43,77.16,44.43,38.47,3.92,76.94,3.92,38.47,16.48,76.94,16.48,38.47-18.81,76.94-18.81,38.58-6.58,77.16-6.58S542.55,510,581,510s38.47-25.15,76.94-25.15,38.47-28.38,76.94-28.38,38.58-37.06,77.16-37.06,38.47-74.89,76.94-74.89v0c-38.47,0-38.47,74.91-76.94,74.91s-38.58,37.06-77.16,37.06S696.43,484.85,658,484.85,619.49,510,581,510s-38.47-29.81-76.94-29.81-38.58,6.58-77.16,6.58S388.45,505.58,350,505.58,311.51,489.1,273,489.1s-38.47-3.92-76.94-3.92-38.58-44.43-77.16-44.43S80.47,405.8,42,405.8Z" transform="translate(-18.65 -15)"/><path class="cls-2" d="M42,405.8c38.47,0,38.47,34.95,76.94,34.95s38.58,44.43,77.16,44.43,38.47,3.92,76.94,3.92,38.47,16.48,76.94,16.48,38.47-18.81,76.94-18.81,38.58-6.58,77.16-6.58S542.55,510,581,510s38.47-25.15,76.94-25.15,38.47-28.38,76.94-28.38,38.58-37.06,77.16-37.06,38.47-74.93,76.94-74.93v0c-38.47,0-38.47,75-76.94,75s-38.58,37.06-77.16,37.06S696.43,484.85,658,484.85,619.49,510,581,510s-38.47-29.81-76.94-29.81-38.58,6.58-77.16,6.58S388.45,505.58,350,505.58,311.51,489.1,273,489.1s-38.47-3.92-76.94-3.92-38.58-44.43-77.16-44.43S80.47,405.8,42,405.8Z" transform="translate(-18.65 -15)"/><path class="cls-2" d="M42,405.8c38.47,0,38.47,34.95,76.94,34.95s38.58,44.43,77.16,44.43,38.47,3.92,76.94,3.92,38.47,16.48,76.94,16.48,38.47-18.81,76.94-18.81,38.58-6.6,77.16-6.6S542.55,510,581,510s38.47-25.15,76.94-25.15,38.47-28.38,76.94-28.38,38.58-37.06,77.16-37.06S850.53,344.3,889,344.3v-.07c-38.47,0-38.47,75.18-76.94,75.18s-38.58,37.06-77.16,37.06S696.43,484.85,658,484.85,619.49,510,581,510s-38.47-29.84-76.94-29.84-38.58,6.61-77.16,6.61S388.45,505.58,350,505.58,311.51,489.1,273,489.1s-38.47-3.92-76.94-3.92-38.58-44.43-77.16-44.43S80.47,405.8,42,405.8Z" transform="translate(-18.65 -15)"/><path class="cls-2" d="M42,405.75c38.47,0,38.47,34.54,76.94,34.54S157.52,485,196.1,485s38.47,4,76.94,4,38.47,16.47,76.94,16.47,38.47-18.75,76.94-18.75,38.58-8.22,77.16-8.22,38.47,31.31,76.94,31.31,38.47-25.88,76.94-25.88,38.47-28,76.94-28,38.58-41.35,77.16-41.35,38.47-71.64,76.94-71.64v-.29c-38.47,0-38.47,70.65-76.94,70.65s-38.58,42.31-77.16,42.31S696.43,483.48,658,483.48,619.49,509.77,581,509.77s-38.47-32-76.94-32-38.58,8.93-77.16,8.93S388.45,505.45,350,505.45,311.51,489,273,489s-38.47-4-76.94-4-38.58-44.93-77.16-44.93S80.47,405.72,42,405.72Z" transform="translate(-18.65 -15)"/><path class="cls-2" d="M42,405.8c38.47,0,38.47,34.95,76.94,34.95s38.58,44.43,77.16,44.43,38.47,3.92,76.94,3.92,38.47,16.48,76.94,16.48,38.47-18.81,76.94-18.81,38.58-6.58,77.16-6.58S542.55,510,581,510s38.47-25.15,76.94-25.15,38.47-28.38,76.94-28.38,38.58-37.06,77.16-37.06,38.47-76.09,76.94-76.09v-.16c-38.47,0-38.47,76.25-76.94,76.25s-38.58,37.06-77.16,37.06S696.43,484.85,658,484.85,619.49,510,581,510s-38.47-29.81-76.94-29.81-38.58,6.58-77.16,6.58S388.45,505.58,350,505.58,311.51,489.1,273,489.1s-38.47-3.92-76.94-3.92-38.58-44.43-77.16-44.43S80.47,405.8,42,405.8Z" transform="translate(-18.65 -15)"/><path class="cls-2" d="M42,405.8c38.47,0,38.47,34.95,76.94,34.95s38.58,44.43,77.16,44.43,38.47,3.92,76.94,3.92,38.47,16.48,76.94,16.48,38.47-18.81,76.94-18.81,38.58-6.58,77.16-6.58S542.55,510,581,510s38.47-25.15,76.94-25.15,38.47-28.38,76.94-28.38,38.58-37.06,77.16-37.06,38.47-75.05,76.94-75.05v-.06c-38.47,0-38.47,75.11-76.94,75.11s-38.58,37.06-77.16,37.06S696.43,484.85,658,484.85,619.49,510,581,510s-38.47-29.81-76.94-29.81-38.58,6.58-77.16,6.58S388.45,505.58,350,505.58,311.51,489.1,273,489.1s-38.47-3.92-76.94-3.92-38.58-44.43-77.16-44.43S80.47,405.8,42,405.8Z" transform="translate(-18.65 -15)"/><path class="cls-2" d="M42,405.8c38.47,0,38.47,34.95,76.94,34.95s38.58,44.43,77.16,44.43,38.47,3.92,76.94,3.92,38.47,16.3,76.94,16.3,38.47-18.63,76.94-18.63,38.58-6.58,77.16-6.58S542.55,510,581,510s38.47-25.15,76.94-25.15,38.47-28.38,76.94-28.38S773.48,419,812.06,419,850.53,343.7,889,343.7v-.11c-38.47,0-38.47,75.36-76.94,75.36s-38.58,37.52-77.16,37.52S696.43,484.85,658,484.85,619.49,510,581,510s-38.47-29.81-76.94-29.81-38.58,6.58-77.16,6.58-38.47,18.6-76.94,18.6S311.51,489.1,273,489.1s-38.47-3.92-76.94-3.92-38.58-44.43-77.16-44.43S80.47,405.8,42,405.8Z" transform="translate(-18.65 -15)"/><path class="cls-2" d="M42,405.8c38.47,0,38.47,34.95,76.94,34.95s38.58,44.43,77.16,44.43,38.47,3.92,76.94,3.92,38.47,16.48,76.94,16.48,38.47-18.81,76.94-18.81,38.58-6.58,77.16-6.58S542.55,510,581,510s38.47-25.15,76.94-25.15,38.47-28.38,76.94-28.38,38.58-37.06,77.16-37.06,38.47-74.78,76.94-74.78h0c-38.47,0-38.47,74.79-76.94,74.79s-38.58,37.06-77.16,37.06S696.43,484.85,658,484.85,619.49,510,581,510s-38.47-29.81-76.94-29.81-38.58,6.58-77.16,6.58S388.45,505.58,350,505.58,311.51,489.1,273,489.1s-38.47-3.92-76.94-3.92-38.58-44.43-77.16-44.43S80.47,405.8,42,405.8Z" transform="translate(-18.65 -15)"/><path class="cls-2" d="M42,405.8c38.47,0,38.47,34.95,76.94,34.95s38.58,44.43,77.16,44.43,38.47,3.92,76.94,3.92,38.47,16.48,76.94,16.48,38.47-18.81,76.94-18.81,38.58-6.58,77.16-6.58S542.55,510,581,510s38.47-25.15,76.94-25.15,38.47-28.38,76.94-28.38,38.58-37.06,77.16-37.06,38.47-74.74,76.94-74.74h0c-38.47,0-38.47,74.74-76.94,74.74s-38.58,37.06-77.16,37.06S696.43,484.85,658,484.85,619.49,510,581,510s-38.47-29.81-76.94-29.81-38.58,6.58-77.16,6.58S388.45,505.58,350,505.58,311.51,489.1,273,489.1s-38.47-3.92-76.94-3.92-38.58-44.43-77.16-44.43S80.47,405.8,42,405.8Z" transform="translate(-18.65 -15)"/><path class="cls-2" d="M42,405.8c38.47,0,38.47,34.95,76.94,34.95s38.58,44.43,77.16,44.43,38.47,3.92,76.94,3.92,38.47,16.48,76.94,16.48,38.47-18.81,76.94-18.81,38.58-6.58,77.16-6.58S542.55,510,581,510s38.47-25.15,76.94-25.15,38.47-28.38,76.94-28.38,38.58-37.06,77.16-37.06,38.47-74.74,76.94-74.74h0c-38.47,0-38.47,74.74-76.94,74.74s-38.58,37.06-77.16,37.06S696.43,484.85,658,484.85,619.49,510,581,510s-38.47-29.81-76.94-29.81-38.58,6.58-77.16,6.58S388.45,505.58,350,505.58,311.51,489.1,273,489.1s-38.47-3.92-76.94-3.92-38.58-44.43-77.16-44.43S80.47,405.8,42,405.8Z" transform="translate(-18.65 -15)"/><path class="cls-2" d="M42,405.5c38.47,0,38.47,29.28,76.94,29.28s38.58,49.86,77.16,49.86,38.47,4.46,76.94,4.46,38.47,16.23,76.94,16.23,38.47-18.56,76.94-18.56,38.58-6.58,77.16-6.58S542.55,510,581,510s38.47-25.15,76.94-25.15,38.47-28.38,76.94-28.38,38.58-37.06,77.16-37.06,38.47-74.74,76.94-74.74h0c-38.47,0-38.47,74.74-76.94,74.74s-38.58,37.06-77.16,37.06S696.43,484.85,658,484.85,619.49,510,581,510s-38.47-29.81-76.94-29.81-38.58,6.58-77.16,6.58S388.45,505.28,350,505.28,311.51,489.1,273,489.1s-38.47-4.61-76.94-4.61S157.52,433,118.94,433,80.47,405.42,42,405.42Z" transform="translate(-18.65 -15)"/><path data-chart="Taiwan 2007:7k 2018:30k" id="taiwan" class="cls-2" d="M42,400.68c38.47,0,38.47,30.3,76.94,30.3s38.58,49.49,77.16,49.49S234.57,483,273,483s38.47,17.5,76.94,17.5,38.47-20.1,76.94-20.1,38.58-12.06,77.16-12.06,38.47,24.32,76.94,24.32,38.47-43.18,76.94-43.18,38.47-14.67,76.94-14.67,38.58-39.55,77.16-39.55S850.53,310,889,310V298.56c-38.47,0-38.47,86.82-76.94,86.82s-38.58,40.38-77.16,40.38S696.43,433.7,658,433.7,619.49,483.86,581,483.86s-38.47-23.4-76.94-23.4-38.58,15.43-77.16,15.43-38.47,21.2-76.94,21.2S311.51,481,273,481s-38.47-3-76.94-3-38.58-52.08-77.16-52.08S80.47,398.16,42,398.16Z" transform="translate(-18.65 -15)"/><path data-chart="Thailand 2007:0k 2018:56k" id="thailand" class="cls-2" d="M42,405.77c38.47,0,38.47,34.83,76.94,34.83s38.58,44.31,77.16,44.31,38.47,3.23,76.94,3.23,38.47,14.93,76.94,14.93,38.47-17.25,76.94-17.25,38.58-8,77.16-8,38.47,26.8,76.94,26.8,38.47-22.95,76.94-22.95S696.43,453,734.9,453s38.58-44,77.16-44S850.53,284.24,889,284.24V263c-38.47,0-38.47,139.7-76.94,139.7s-38.58,49.13-77.16,49.13S696.43,480,658,480,619.49,500.54,581,500.54s-38.47-23.66-76.94-23.66-38.58,8.63-77.16,8.63S388.45,502,350,502,311.51,486.64,273,486.64s-38.47-1.87-76.94-1.87-38.58-44.32-77.16-44.32S80.47,405.77,42,405.77Z" transform="translate(-18.65 -15)"/><path class="cls-2" d="M42,405.8c38.47,0,38.47,34.95,76.94,34.95s38.58,44.43,77.16,44.43,38.47,3.92,76.94,3.92,38.47,16.48,76.94,16.48,38.47-18.81,76.94-18.81,38.58-6.58,77.16-6.58S542.55,510,581,510s38.47-25.15,76.94-25.15,38.47-28.38,76.94-28.38,38.58-37.06,77.16-37.06,38.47-74.74,76.94-74.74h0c-38.47,0-38.47,74.74-76.94,74.74s-38.58,37.06-77.16,37.06S696.43,484.85,658,484.85,619.49,510,581,510s-38.47-29.81-76.94-29.81-38.58,6.58-77.16,6.58S388.45,505.58,350,505.58,311.51,489.1,273,489.1s-38.47-3.92-76.94-3.92-38.58-44.43-77.16-44.43S80.47,405.8,42,405.8Z" transform="translate(-18.65 -15)"/><path class="cls-2" d="M42,405.8c38.47,0,38.47,34.95,76.94,34.95s38.58,44.43,77.16,44.43,38.47,3.92,76.94,3.92,38.47,16.48,76.94,16.48,38.47-18.81,76.94-18.81,38.58-6.58,77.16-6.58S542.55,510,581,510s38.47-25.15,76.94-25.15,38.47-28.38,76.94-28.38,38.58-37.06,77.16-37.06,38.47-74.74,76.94-74.74h0c-38.47,0-38.47,74.74-76.94,74.74s-38.58,37.06-77.16,37.06S696.43,484.85,658,484.85,619.49,510,581,510s-38.47-29.81-76.94-29.81-38.58,6.58-77.16,6.58S388.45,505.58,350,505.58,311.51,489.1,273,489.1s-38.47-3.92-76.94-3.92-38.58-44.43-77.16-44.43S80.47,405.8,42,405.8Z" transform="translate(-18.65 -15)"/><path data-chart="Turkey 2007:0k 2018:6k" id="turkey" class="cls-2" d="M42,405.8c38.47,0,38.47,34.95,76.94,34.95s38.58,44.41,77.16,44.41,38.47,3.94,76.94,3.94,38.47,16.48,76.94,16.48,38.47-19,76.94-19,38.58-6.78,77.16-6.78S542.55,510,581,510s38.47-25.6,76.94-25.6,38.47-28.28,76.94-28.28,38.58-44.51,77.16-44.51,38.47-76.24,76.94-76.24v-2.46c-38.47,0-38.47,76.12-76.94,76.12s-38.58,46.92-77.16,46.92S696.43,484.15,658,484.15,619.49,510,581,510s-38.47-30.28-76.94-30.28-38.58,6.82-77.16,6.82S388.45,505.58,350,505.58,311.51,489.1,273,489.1s-38.47-4-76.94-4-38.58-44.4-77.16-44.4S80.47,405.8,42,405.8Z" transform="translate(-18.65 -15)"/><path class="cls-2" d="M42,405.8c38.47,0,38.47,34.95,76.94,34.95s38.58,44.43,77.16,44.43,38.47,3.92,76.94,3.92,38.47,16.48,76.94,16.48,38.47-18.81,76.94-18.81,38.58-6.58,77.16-6.58S542.55,510,581,510s38.47-25.15,76.94-25.15,38.47-28.38,76.94-28.38,38.58-37.06,77.16-37.06,38.47-74.74,76.94-74.74h0c-38.47,0-38.47,74.74-76.94,74.74s-38.58,37.06-77.16,37.06S696.43,484.85,658,484.85,619.49,510,581,510s-38.47-29.81-76.94-29.81-38.58,6.58-77.16,6.58S388.45,505.58,350,505.58,311.51,489.1,273,489.1s-38.47-3.92-76.94-3.92-38.58-44.43-77.16-44.43S80.47,405.8,42,405.8Z" transform="translate(-18.65 -15)"/><path class="cls-2" d="M42,405.8c38.47,0,38.47,34.94,76.94,34.94s38.58,44.44,77.16,44.44,38.47,3.92,76.94,3.92,38.47,15.31,76.94,15.31,38.47-17.65,76.94-17.65,38.58-6.57,77.16-6.57S542.55,510,581,510s38.47-25.29,76.94-25.29,38.47-28.24,76.94-28.24,38.58-37.08,77.16-37.08,38.47-74.74,76.94-74.74h0c-38.47,0-38.47,74.74-76.94,74.74s-38.58,37.09-77.16,37.09S696.43,484.65,658,484.65,619.49,510,581,510s-38.47-29.81-76.94-29.81-38.58,6.57-77.16,6.57S388.45,504,350,504,311.51,489.1,273,489.1s-38.47-3.92-76.94-3.92-38.58-44.45-77.16-44.45S80.47,405.8,42,405.8Z" transform="translate(-18.65 -15)"/><path class="cls-2" d="M42,405.8c38.47,0,38.47,34.95,76.94,34.95s38.58,44.43,77.16,44.43,38.47,3.92,76.94,3.92,38.47,16.45,76.94,16.45,38.47-18.79,76.94-18.79,38.58-6.57,77.16-6.57S542.55,510,581,510s38.47-25.15,76.94-25.15,38.47-28.39,76.94-28.39,38.58-37,77.16-37,38.47-74.85,76.94-74.85v0c-38.47,0-38.47,74.87-76.94,74.87s-38.58,37-77.16,37-38.47,28.4-76.94,28.4S619.49,510,581,510s-38.47-29.81-76.94-29.81-38.58,6.56-77.16,6.56S388.45,505.54,350,505.54,311.51,489.1,273,489.1s-38.47-3.92-76.94-3.92-38.58-44.43-77.16-44.43S80.47,405.8,42,405.8Z" transform="translate(-18.65 -15)"/><path class="cls-2" d="M42,405.8c38.47,0,38.47,34.95,76.94,34.95s38.58,44.43,77.16,44.43,38.47,3.92,76.94,3.92,38.47,16.48,76.94,16.48,38.47-18.81,76.94-18.81,38.58-6.63,77.16-6.63,38.47,29.63,76.94,29.63,38.47-24.92,76.94-24.92,38.47-28.4,76.94-28.4,38.58-37,77.16-37,38.47-74.74,76.94-74.74h0c-38.47,0-38.47,74.74-76.94,74.74s-38.58,37-77.16,37S696.43,484.85,658,484.85,619.49,509.71,581,509.71s-38.47-29.58-76.94-29.58-38.58,6.64-77.16,6.64S388.45,505.58,350,505.58,311.51,489.1,273,489.1s-38.47-3.92-76.94-3.92-38.58-44.43-77.16-44.43S80.47,405.8,42,405.8Z" transform="translate(-18.65 -15)"/><path class="cls-2" d="M42,405.8c38.47,0,38.47,34.95,76.94,34.95s38.58,44.43,77.16,44.43,38.47,3.92,76.94,3.92,38.47,16.48,76.94,16.48,38.47-18.81,76.94-18.81,38.58-6.58,77.16-6.58S542.55,510,581,510s38.47-25.15,76.94-25.15,38.47-28.38,76.94-28.38,38.58-37.06,77.16-37.06,38.47-74.74,76.94-74.74h0c-38.47,0-38.47,74.74-76.94,74.74s-38.58,37.06-77.16,37.06S696.43,484.85,658,484.85,619.49,510,581,510s-38.47-29.81-76.94-29.81-38.58,6.58-77.16,6.58S388.45,505.58,350,505.58,311.51,489.1,273,489.1s-38.47-3.92-76.94-3.92-38.58-44.43-77.16-44.43-38.47-35-76.94-35Z" transform="translate(-18.65 -15)"/><path data-chart="Vietnam 2007:8k 2018:38k" id="vietnam" class="cls-3" d="M42,398.16c38.47,0,38.47,38.25,76.94,38.25S157.52,478,196.1,478s38.47,6.9,76.94,6.9,38.47,3.37,76.94,3.37,38.47-5,76.94-5S465.5,473,504.08,473s38.47,27.54,76.94,27.54,38.47-22.3,76.94-22.3,38.47-52.48,76.94-52.48,38.58-40.38,77.16-40.38,38.47-86.82,76.94-86.82V284.24c-38.47,0-38.47,77.07-76.94,77.07S773.48,416,734.9,416,696.43,471.3,658,471.3,619.49,492.66,581,492.66s-38.47-24.32-76.94-24.32S465.5,480.4,426.92,480.4s-38.47,1.66-76.94,1.66S311.51,483,273,483s-38.47-7.67-76.94-7.67-38.58-40.55-77.16-40.55S80.47,395,42,395Z" transform="translate(-18.65 -15)"/><path class="cls-2" d="M42,405.8c38.47,0,38.47,34.95,76.94,34.95s38.58,44.42,77.16,44.42S234.57,489,273,489s38.47,16.46,76.94,16.46,38.47-18.76,76.94-18.76,38.58-6.58,77.16-6.58S542.55,510,581,510s38.47-25.12,76.94-25.12,38.47-28.4,76.94-28.4,38.58-37,77.16-37,38.47-74.74,76.94-74.74h0c-38.47,0-38.47,74.73-76.94,74.73s-38.58,37-77.16,37-38.47,28.4-76.94,28.4S619.49,509.94,581,509.94s-38.47-29.8-76.94-29.8-38.58,6.58-77.16,6.58S388.45,505.48,350,505.48,311.51,489,273,489s-38.47-3.86-76.94-3.86-38.58-44.41-77.16-44.41S80.47,405.8,42,405.8Z" transform="translate(-18.65 -15)"/><line class="cls-1" x1="23.85" y1="80" x2="23.92" y2="501"/><text class="cls-4" transform="translate(10.8 519.1)">2007</text><text class="cls-4" transform="translate(87.74 519.1)">2008</text><text class="cls-4" transform="translate(164.89 519.1)">2009</text><text class="cls-4" transform="translate(240.83 519.1)">2010</text><text class="cls-4" transform="translate(318.15 519.1)">20<tspan class="cls-5" x="13.35" y="0">1</tspan><tspan x="19.13" y="0">1</tspan></text><text class="cls-4" transform="translate(394.72 519.1)">2012</text><text class="cls-4" transform="translate(470.87 519.1)">2013</text><text class="cls-4" transform="translate(547.81 519.1)">2014</text><text class="cls-4" transform="translate(624.76 519.1)">2015</text><text class="cls-4" transform="translate(701.7 519.1)">2016</text><text class="cls-4" transform="translate(778.85 519.1)">2017</text><text class="cls-6" transform="translate(413.84 384.53)">Hong Kong</text><text class="cls-7" transform="translate(426.77 183.75)">Mainland China</text><g class="cls-8"><path class="cls-9" d="M742,492.69s-29.87,3.71-49.63-20.24" transform="translate(-18.65 -15)"/><polygon class="cls-10" points="669.57 451.74 678.76 457.3 674.09 457.83 672.24 462.15 669.57 451.74"/></g><text class="cls-11" transform="translate(727.24 482.09)"><tspan class="cls-12">V</tspan><tspan x="10.38" y="0">ietnam</tspan></text><text class="cls-13" transform="translate(541.54 451.74)">Indonesia</text><line class="cls-1" x1="255.85" x2="255.42" y2="501"/><line class="cls-1" x1="331.85" x2="331.42" y2="501"/><line class="cls-1" x1="408.85" x2="408.42" y2="501"/><line class="cls-1" x1="486.85" x2="486.42" y2="501"/><line class="cls-1" x1="563.85" x2="563.42" y2="501"/><line class="cls-1" x1="639.85" x2="639.42" y2="501"/><line class="cls-1" x1="716.85" x2="716.42" y2="501"/><line class="cls-1" x1="793.85" x2="793.42" y2="501"/><line class="cls-1" x1="869.85" y1="86" x2="869.42" y2="501"/><text class="cls-13" transform="translate(854.7 518.91)">2018</text><text class="cls-14" transform="translate(1.97 34.54)">719K<tspan class="cls-15" x="-1.97" y="20.4">T</tspan><tspan x="8.57" y="20.4">ONS</tspan></text><text class="cls-14" transform="translate(848.35 34.98)">395K<tspan class="cls-15" x="-1.38" y="20.4">T</tspan><tspan x="9.16" y="20.4">ONS</tspan></text></svg>
